<?xml version="1.0" encoding="UTF-8"?><svg id="Guides" xmlns="http://www.w3.org/2000/svg" viewBox="0 0 335.33 151.74"><path d="m22.86,92.46c0,10.33,9.14,14.73,18.46,14.73,6.77,0,15.75-2.71,15.75-11.18,0-7.28-10.16-9.99-27.27-13.55-14.06-3.22-27.77-7.79-27.77-23.37,0-22.36,19.31-28.11,38.1-28.11s36.75,6.44,38.61,27.94h-22.86c-.68-9.31-7.79-11.85-16.43-11.85-5.42,0-13.38.85-13.38,8.13,0,8.63,13.72,9.82,27.26,13.04,14.06,3.22,27.77,8.3,27.77,24.55,0,23.03-20.15,30.48-39.97,30.48S.85,115.67,0,92.46h22.86Z"/><path d="m177.32,151.74h-24.05v-41.83h-.34c-5.59,9.48-16.93,13.38-27.6,13.38-16.09,0-37.09-11.68-37.09-45.55,0-24.05,12.7-46.74,39.29-46.74,10.84,0,21.17,3.89,26.59,13.55h.34v-11.18h22.86v118.38Zm-44.2-46.57c15.58,0,21-13.21,21-27.6,0-13.55-5.42-28.45-20.49-28.45s-21.34,13.89-21.34,28.11,5.08,27.94,20.83,27.94Z"/><path d="m241.17,49.45h-14.39v-16.09h14.39v-6.77c0-15.58,9.65-26.59,29.3-26.59,4.23,0,8.64.51,12.7.68v17.95c-2.88-.34-5.93-.51-8.81-.51-6.6,0-9.14,2.71-9.14,9.99v5.25h16.6v16.09h-16.6v71.47h-24.05V49.45Z"/><path d="m317.72,33.36h17.61v16.09h-17.61v43.35c0,8.13,2.03,10.16,10.16,10.16,2.71,0,5.25-.17,7.45-.68v18.8c-4.06.68-9.31.85-14.06.85-14.9,0-27.6-3.22-27.6-20.83v-51.65h-14.56v-16.09h14.56V7.11h24.05v26.25Z"/></svg>