<?xml version="1.0" encoding="UTF-8"?>
<svg id="Layer_2" data-name="Layer 2" xmlns="http://www.w3.org/2000/svg" xmlns:xlink="http://www.w3.org/1999/xlink" viewBox="0 0 410.2 307.07">
  <defs>
    <style>
      .cls-1, .cls-2, .cls-3 {
        fill: none;
      }

      .cls-4 {
        clip-path: url(#clippath);
      }

      .cls-5 {
        fill: #fbf9f0;
      }

      .cls-2 {
        stroke-width: 2px;
      }

      .cls-2, .cls-3 {
        stroke: #fbf9f0;
      }

      .cls-6 {
        clip-path: url(#clippath-1);
      }

      .cls-7 {
        clip-path: url(#clippath-2);
      }

      .cls-3 {
        stroke-width: 3px;
      }
    </style>
    <clipPath id="clippath">
      <rect class="cls-1" width="410.2" height="307.07"/>
    </clipPath>
    <clipPath id="clippath-1">
      <rect class="cls-1" width="410.2" height="307.07"/>
    </clipPath>
    <clipPath id="clippath-2">
      <rect class="cls-1" width="410.2" height="307.07"/>
    </clipPath>
  </defs>
  <g id="Guides">
    <g>
      <g>
        <path class="cls-5" d="m25.47,60.71c0,4.51,3.99,6.43,8.05,6.43,2.95,0,6.87-1.18,6.87-4.88,0-3.18-4.43-4.36-11.89-5.91-6.13-1.4-12.11-3.4-12.11-10.19,0-9.75,8.42-12.26,16.62-12.26s16.03,2.81,16.84,12.19h-9.97c-.3-4.06-3.4-5.17-7.17-5.17-2.36,0-5.84.37-5.84,3.55,0,3.77,5.98,4.28,11.89,5.69,6.13,1.4,12.11,3.62,12.11,10.71,0,10.05-8.79,13.3-17.43,13.3s-17.58-3.32-17.95-13.44h9.97Z"/>
        <path class="cls-5" d="m92.84,86.56h-10.49v-18.25h-.15c-2.44,4.14-7.39,5.84-12.04,5.84-7.02,0-16.18-5.1-16.18-19.87,0-10.49,5.54-20.39,17.14-20.39,4.73,0,9.23,1.7,11.6,5.91h.15v-4.88h9.97v51.64Zm-19.28-20.31c6.8,0,9.16-5.76,9.16-12.04,0-5.91-2.36-12.41-8.94-12.41s-9.31,6.06-9.31,12.26,2.22,12.19,9.09,12.19Z"/>
        <path class="cls-5" d="m120.69,41.94h-6.28v-7.02h6.28v-2.95c0-6.8,4.21-11.6,12.78-11.6,1.85,0,3.77.22,5.54.29v7.83c-1.26-.15-2.59-.22-3.84-.22-2.88,0-3.99,1.18-3.99,4.36v2.29h7.24v7.02h-7.24v31.17h-10.49v-31.17Z"/>
        <path class="cls-5" d="m154.08,34.93h7.68v7.02h-7.68v18.91c0,3.55.89,4.43,4.43,4.43,1.18,0,2.29-.07,3.25-.3v8.2c-1.77.29-4.06.37-6.13.37-6.5,0-12.04-1.4-12.04-9.09v-22.53h-6.35v-7.02h6.35v-11.45h10.49v11.45Z"/>
      </g>
      <g class="cls-4">
        <rect class="cls-3" x="168.64" y="80.54" width="224.89" height="224.89"/>
      </g>
      <line class="cls-2" x1="394.48" y1="67.25" x2="167.87" y2="67.25"/>
      <line class="cls-2" x1="168.1" y1="60.57" x2="168.1" y2="73.63"/>
      <line class="cls-2" x1="394.08" y1="60.57" x2="394.08" y2="73.63"/>
      <line class="cls-2" x1="161.73" y1="79.99" x2="149.79" y2="79.99"/>
      <g class="cls-6">
        <line class="cls-2" x1="156.04" y1="80.32" x2="156.04" y2="306.12"/>
      </g>
      <g class="cls-7">
        <line class="cls-2" x1="161.73" y1="305.98" x2="149.79" y2="305.98"/>
      </g>
    </g>
  </g>
</svg>