<?xml version="1.0" encoding="UTF-8"?><svg id="Guides" xmlns="http://www.w3.org/2000/svg" viewBox="0 0 380.33 287.17"><defs><style>.cls-1{stroke-width:2px;}.cls-1,.cls-2{fill:none;stroke:#000;}.cls-2{stroke-width:3px;}</style></defs><path d="m9.99,40.41c0,4.51,4,6.44,8.07,6.44,2.96,0,6.88-1.18,6.88-4.88,0-3.18-4.44-4.37-11.92-5.92-6.14-1.41-12.14-3.41-12.14-10.21,0-9.77,8.44-12.29,16.65-12.29s16.06,2.81,16.88,12.21h-9.99c-.3-4.07-3.41-5.18-7.18-5.18-2.37,0-5.85.37-5.85,3.55,0,3.77,6,4.29,11.92,5.7,6.14,1.41,12.14,3.63,12.14,10.73,0,10.07-8.81,13.32-17.47,13.32S.37,50.55,0,40.41h9.99Z"/><path d="m77.5,66.32h-10.51v-18.28h-.15c-2.44,4.14-7.4,5.85-12.06,5.85-7.03,0-16.21-5.11-16.21-19.91,0-10.51,5.55-20.43,17.17-20.43,4.74,0,9.25,1.7,11.62,5.92h.15v-4.88h9.99v51.74Zm-19.32-20.35c6.81,0,9.18-5.77,9.18-12.06,0-5.92-2.37-12.43-8.96-12.43s-9.33,6.07-9.33,12.29,2.22,12.21,9.1,12.21Z"/><path d="m105.41,21.61h-6.29v-7.03h6.29v-2.96c0-6.81,4.22-11.62,12.8-11.62,1.85,0,3.77.22,5.55.3v7.85c-1.26-.15-2.59-.22-3.85-.22-2.89,0-4,1.18-4,4.37v2.29h7.25v7.03h-7.25v31.24h-10.51v-31.24Z"/><path d="m138.86,14.58h7.7v7.03h-7.7v18.95c0,3.55.89,4.44,4.44,4.44,1.18,0,2.29-.07,3.26-.3v8.22c-1.78.3-4.07.37-6.14.37-6.51,0-12.06-1.41-12.06-9.1v-22.58h-6.37v-7.03h6.37V3.11h10.51v11.47Z"/><rect class="cls-2" x="153.45" y="60.29" width="225.34" height="225.34"/><line class="cls-1" x1="379.74" y1="46.97" x2="152.68" y2="46.97"/><line class="cls-1" x1="152.91" y1="40.27" x2="152.91" y2="53.36"/><line class="cls-1" x1="379.33" y1="40.27" x2="379.33" y2="53.36"/><line class="cls-1" x1="146.53" y1="59.73" x2="134.56" y2="59.73"/><line class="cls-1" x1="140.82" y1="60.06" x2="140.82" y2="286.31"/><line class="cls-1" x1="146.53" y1="286.17" x2="134.56" y2="286.17"/></svg>