<?xml version="1.0" encoding="UTF-8"?>
<svg id="Layer_2" data-name="Layer 2" xmlns="http://www.w3.org/2000/svg" viewBox="0 0 411.01 307.67">
  <defs>
    <style>
      .cls-1, .cls-2, .cls-3 {
        fill: none;
      }

      .cls-2 {
        stroke-width: 2px;
      }

      .cls-2, .cls-3 {
        stroke: #000;
      }

      .cls-3 {
        stroke-width: 3px;
      }
    </style>
  </defs>
  <g id="Guides">
    <g>
      <g>
        <path d="m25.52,60.83c0,4.51,4,6.44,8.07,6.44,2.96,0,6.88-1.18,6.88-4.88,0-3.18-4.44-4.37-11.92-5.92-6.14-1.41-12.14-3.41-12.14-10.21,0-9.77,8.44-12.29,16.65-12.29s16.06,2.81,16.88,12.21h-9.99c-.3-4.07-3.41-5.18-7.18-5.18-2.37,0-5.85.37-5.85,3.55,0,3.77,6,4.29,11.92,5.7,6.14,1.41,12.14,3.63,12.14,10.73,0,10.07-8.81,13.32-17.47,13.32s-17.62-3.33-17.99-13.47h9.99Z"/>
        <path d="m93.02,86.73h-10.51v-18.28h-.15c-2.44,4.14-7.4,5.85-12.06,5.85-7.03,0-16.21-5.11-16.21-19.91,0-10.51,5.55-20.43,17.17-20.43,4.74,0,9.25,1.7,11.62,5.92h.15v-4.88h9.99v51.74Zm-19.32-20.35c6.81,0,9.18-5.77,9.18-12.06,0-5.92-2.37-12.43-8.96-12.43s-9.33,6.07-9.33,12.29,2.22,12.21,9.1,12.21Z"/>
        <path d="m120.93,42.03h-6.29v-7.03h6.29v-2.96c0-6.81,4.22-11.62,12.8-11.62,1.85,0,3.77.22,5.55.3v7.85c-1.26-.15-2.59-.22-3.85-.22-2.89,0-4,1.18-4,4.37v2.29h7.25v7.03h-7.25v31.24h-10.51v-31.24Z"/>
        <path d="m154.39,35h7.7v7.03h-7.7v18.95c0,3.55.89,4.44,4.44,4.44,1.18,0,2.29-.07,3.26-.3v8.22c-1.78.3-4.07.37-6.14.37-6.51,0-12.06-1.41-12.06-9.1v-22.58h-6.37v-7.03h6.37v-11.47h10.51v11.47Z"/>
      </g>
      <rect class="cls-3" x="168.97" y="80.7" width="225.34" height="225.34"/>
      <rect class="cls-1" width="411.01" height="307.67"/>
      <line class="cls-2" x1="395.26" y1="67.38" x2="168.2" y2="67.38"/>
      <line class="cls-2" x1="168.43" y1="60.69" x2="168.43" y2="73.78"/>
      <line class="cls-2" x1="394.85" y1="60.69" x2="394.85" y2="73.78"/>
      <line class="cls-2" x1="162.05" y1="80.15" x2="150.08" y2="80.15"/>
      <line class="cls-2" x1="156.34" y1="80.48" x2="156.34" y2="306.72"/>
      <rect class="cls-1" width="411.01" height="307.67"/>
      <line class="cls-2" x1="162.05" y1="306.58" x2="150.08" y2="306.58"/>
      <rect class="cls-1" width="411.01" height="307.67"/>
    </g>
  </g>
</svg>