<?xml version="1.0" encoding="UTF-8"?><svg id="Guides" xmlns="http://www.w3.org/2000/svg" viewBox="0 0 341.98 154.74"><defs><style>.cls-1{fill:#fbf9f0;}</style></defs><path class="cls-1" d="m23.32,94.3c0,10.53,9.33,15.02,18.82,15.02,6.91,0,16.06-2.76,16.06-11.4,0-7.43-10.36-10.19-27.81-13.82-14.33-3.28-28.32-7.95-28.32-23.83,0-22.8,19.69-28.67,38.86-28.67s37.48,6.56,39.38,28.5h-23.32c-.69-9.5-7.95-12.09-16.75-12.09-5.53,0-13.64.86-13.64,8.29,0,8.81,13.99,10.02,27.81,13.3,14.33,3.28,28.32,8.46,28.32,25.04,0,23.49-20.55,31.09-40.76,31.09S.86,117.96,0,94.3h23.32Z"/><path class="cls-1" d="m180.83,154.74h-24.52v-42.66h-.35c-5.7,9.67-17.27,13.65-28.15,13.65-16.41,0-37.82-11.92-37.82-46.46,0-24.52,12.95-47.67,40.07-47.67,11.05,0,21.59,3.97,27.11,13.82h.35v-11.4h23.31v120.72Zm-45.08-47.49c15.89,0,21.42-13.47,21.42-28.15,0-13.82-5.53-29.01-20.9-29.01s-21.76,14.16-21.76,28.67,5.18,28.5,21.24,28.5Z"/><path class="cls-1" d="m245.95,50.43h-14.68v-16.41h14.68v-6.91c0-15.89,9.85-27.11,29.88-27.11,4.32,0,8.81.52,12.95.69v18.31c-2.94-.34-6.04-.52-8.98-.52-6.74,0-9.33,2.76-9.33,10.19v5.35h16.92v16.41h-16.92v72.88h-24.52V50.43Z"/><path class="cls-1" d="m324.02,34.02h17.96v16.41h-17.96v44.21c0,8.29,2.07,10.36,10.36,10.36,2.76,0,5.35-.17,7.6-.69v19.17c-4.14.69-9.5.86-14.33.86-15.2,0-28.15-3.28-28.15-21.24v-52.68h-14.85v-16.41h14.85V7.25h24.52v26.77Z"/></svg>